<?xml version="1.0" encoding="UTF-8" standalone="no"?><!-- Generator: Gravit.io --><svg xmlns="http://www.w3.org/2000/svg" xmlns:xlink="http://www.w3.org/1999/xlink" style="isolation:isolate" viewBox="0 0 800 800" width="800pt" height="800pt"><defs><clipPath id="_clipPath_VPqSE9ftyMhAX9WDQohvo9PLOjGqZBp5"><rect width="800" height="800"/></clipPath></defs><g clip-path="url(#_clipPath_VPqSE9ftyMhAX9WDQohvo9PLOjGqZBp5)"><rect width="800" height="800" style="fill:rgb(0,0,0)" fill-opacity="0"/><path d=" M 147.509 409.777 C 147.509 349.601 196.364 300.747 256.539 300.747 C 316.715 300.747 365.569 349.601 365.569 409.777 C 365.569 469.952 316.715 518.807 256.539 518.807 C 196.364 518.807 147.509 469.952 147.509 409.777 L 147.509 409.777 L 147.509 409.777 Z  M 469.578 409.777 C 469.578 369 502.684 335.894 543.461 335.894 C 584.237 335.894 617.343 369 617.343 409.777 C 617.343 450.553 584.237 483.659 543.461 483.659 C 502.684 483.659 469.578 450.553 469.578 409.777 L 469.578 409.777 Z  M 434.431 409.777 C 434.431 349.601 483.285 300.747 543.461 300.747 C 603.636 300.747 652.491 349.601 652.491 409.777 C 652.491 469.952 603.636 518.807 543.461 518.807 C 483.285 518.807 434.431 469.952 434.431 409.777 L 434.431 409.777 L 434.431 409.777 L 434.431 409.777 Z  M 543.657 196.146 C 584.264 165.103 614.523 121.205 628.365 70.558 C 719.697 137.498 778.736 243.579 778.736 362.9 C 778.736 565.2 609.03 729.442 400 729.442 C 190.97 729.442 21.264 565.2 21.264 362.9 C 21.264 243.579 80.303 137.498 171.635 70.558 C 185.477 121.205 215.736 165.103 256.343 196.146 C 295.667 164.495 345.64 145.557 400 145.557 C 454.36 145.557 504.333 164.495 543.657 196.146 L 543.657 196.146 L 543.657 196.146 L 543.657 196.146 Z  M 182.657 409.777 C 182.657 369 215.763 335.894 256.539 335.894 C 297.316 335.894 330.422 369 330.422 409.777 C 330.422 450.553 297.316 483.659 256.539 483.659 C 215.763 483.659 182.657 450.553 182.657 409.777 Z " fill-rule="evenodd" fill="rgb(28,28,28)"/></g></svg>